# xmcd CD database file
#
# Track frame offsets:
#	182
#	22057
#	51382
#	92192
#	117435
#	141627
#	161920
#	189782
#	208702
#
# Disc length: 2881 seconds
#
# Revision: 0
# Processed by: cddbd v1.5.1PL0 Copyright (c) Steve Scherf et al.
# Submitted via: CDex 1.51
#
DISCID=890b3f09
DTITLE=Six Sax - Homenaje
DYEAR=1995
DGENRE=Jazz
TTITLE0=Earth Problems
TTITLE1=John's Dreams
TTITLE2=Cordoba La Habana y la Toscana
TTITLE3=George's Song
TTITLE4=Solo (Alone)
TTITLE5=To My Latin Friends
TTITLE6=Homeaje a Astor
TTITLE7=Sax Sex Six
TTITLE8=The G4 Formula
EXTD=YEAR: 1995
EXTT0=
EXTT1=
EXTT2=
EXTT3=
EXTT4=
EXTT5=
EXTT6=
EXTT7=
EXTT8=
PLAYORDER=
